<?xml version="1.0" encoding="utf-8"?>
<!-- Generator: Adobe Illustrator 25.4.1, SVG Export Plug-In . SVG Version: 6.00 Build 0)  -->
<svg version="1.1" id="Layer_1" xmlns="http://www.w3.org/2000/svg" xmlns:xlink="http://www.w3.org/1999/xlink" x="0px" y="0px"
	 viewBox="0 0 3000 3000" style="enable-background:new 0 0 3000 3000;" xml:space="preserve">
<style type="text/css">
	.st0{fill:#485B74;}
	.st1{fill:none;stroke:#FFFFFF;stroke-width:2.6516;stroke-miterlimit:10;}
	.st2{fill:none;stroke:#FFFFFF;stroke-width:3;stroke-miterlimit:10;}
</style>
<g id="XMLID_21_">
	<g id="XMLID_707_">
		<path id="XMLID_98_" class="st0" d="M936.2,288.8c0,0,8.7-4.5,9.2,1.8c0.5,6.4,3,11.5,4.6,12.1s3.4,5.2,7.1,5.2s11.5,3.4,14.1,6.1
			c2.7,2.7,2.3,6.2,6,6.2s5.9-1.1,7.5-1.7c1.6-0.5,7.5-1.1,9.1,1.6c1.6,2.7-5.8,7.9-5.8,7.9l-2.1,5.5c0,0,0,9.2,1.6,9.2s7.4,0,7.4,0
			l3.2,2.4c0,0,3.7,2,5.3,2s4.8,1,4.8,1l4.8,5.3l1.1,15.4l-3.2,4.2l-3.7,4.8l-11.1,3.2l-10.1,2.7l-1.6,5l-1.1,7.1h-6.4h-7.4
			l-4.2,6.1l-3.2,6.5l0.5,8l2.7,3.2l2.1,4.3l-1.1,30.8l3.7,8l-0.5,10.1l-0.5,7.4l1.1,7.4l0.5,12.2c0,0-2.1,18-1.6,21.2
			c0.5,3.2,8,13.9,8,13.9l6.9,4.9h8l5.8,4.1l10.1,8.7l12.7,2.9l10.1,9.3h7.4l6-0.7l4.4,3.6v7.4l-2.8,4.8l1.3,4.9l10.3,7h12.2h6.9
			l4.8,3.1l4.8,3.4l5.8,3.3l5.3,5.9l1.1,11.7l-3.7,5.3l-7.4,4.3l-10.1,1.1h-13.8l-7.4,7.4l-11.7,5.8l-5.8,7.4l-2.7,8l-0.5,7.4
			l4.2,5.8l2.7,6.4l-1.1,6.9l-4.8,4.2l-2.7,2.1l0.5,12.2l0.5,8l3.7,3.2l-6.4,6.9l-10.1,6.9l-10.1,14.3l-10.6,7.4l-6.4,7.4l-7.4,4.8
			l-5.3,9l0.5,6.4l4.2,5.3l1.1,7.4l-3.7,5.8c0,0-18,9-27.6,11.1c-9.5,2.1-16.4,3.7-17.5,11.1c-1.1,7.4-8.5,35-14.3,43.5
			s-23.9,29.7-23.9,29.7s-36.1,18.6-38.2,19.6c-2.1,1.1-8,10.1-9,13.3c-1.1,3.2-3.7,11.1-5.8,14.3c-2.1,3.2-8,9-10.6,11.7
			c-2.7,2.7-10.1,8.5-10.1,8.5l-7.4,6.4c0,0-2.7,8-2.7,10.1s-3.7,7.4-3.7,7.4l-8,2.7c0,0-34.5,4.8-36.1,5.3
			c-1.6,0.5-12.2,3.1-14.8,4.7c-2.7,1.6-14.7,6.2-14.7,6.2h-8.6l-4.2-4.1c0,0-1.6-6.3-1.6-8.4c0-2.1-3.2-10-3.2-10l-4.2-7.9
			l-3.7-5.8l-8,0.5l-9.5,3.2l-7.4,5.3c0,0-14.3,25.5-17,29.2c-2.7,3.7-17,15.9-19.1,17.5c-2.1,1.6-12.7,5.3-18.6,15.9
			c-5.8,10.6-10.6,28.1-9,34.5c1.6,6.4,10.6,14.3,15.4,16.4c4.8,2.1,12.2,5.8,17,4.8c4.8-1.1,14.8-4.8,16.4,4.2
			c1.6,9,2.7,22.8-3.7,29.7c-6.4,6.9-3.2,16.4-2.1,20.7c1.1,4.2,11.1,22.8,17.5,25.5c6.4,2.7,13.8,1.1,13.8,1.1s8-4.8,10.1-1.6
			s0,34.5,0,34.5l14.8,15.4c0,0-0.5,11.7,2.7,18s11.1,24.9,11.1,24.9s-9.5,1.6-9.5,8s0.5,12.2,0.5,12.2l8.5,3.2c0,0-1.6,4.2-3.2,4.8
			c-1.6,0.5-10.1,0-10.1,0l-5.3,3.7l-3.2,4.8l-9,2.7l-11.1-5.8l-1.1-14.8c0,0-11.1,4.8-13.3,4.8s-20.7-1.1-24.9,5.3
			c-4.2,6.4-5.8,10.6-5.8,10.6l-23.9-1.1l-10.6-11.7l-25.5-0.5l-5.8,4.9l-4.2-5.2h-5.3l-4.2,2.9l-4.2,1.1l-3.2-6.9l-2.1-1.5
			l-5.3,4.4h-3.7l-6.5-6.1l-4.9,2.6v5.3l1.9,21.2c0,0-20.4-1.6-23.1-2.7c-2.7-1.1-14.1-2.7-16.2-1.1c-2.1,1.6-6.6,6.9-6.6,6.9v5.3
			l1.6,4.2l3.3,2.7l3.3,2.7l-2.1,4.8l-4.8,2.7l-4.3,1.1v3.2l2.8,3.2h7.4h6.4l5.3,2l-1.1,8l4.2,8.5l4.2,6.9c0,0,4.2,16.4,10.6,20.7
			c6.4,4.2,42.4,27,42.4,27l20.7,3l11.1,0.9h6.9l5.3-4.2c0,0,4.2-3.6,5.8-3.6s6.9-1,6.9-1l5.8,0.6l4.8-1l2.7-5.3l4.8-0.5l4.2-1.6
			l1.6-6.4l1.1-5.3l4.2-2.3l5.8-3.4h5.3l4.8,3.7l6.4,1.3h4.8l5.8-5h3.2l1.6,3.5l-1.6,4.8l-4.8,6.4l-8,4.8l-5.8,3.2l-1.6,6.4
			l-4.8,4.2l-7.4-1.6l-4.8,5.8l-12.2,18.6l-17.5,1.8l-6.4,7.1h-12.7l-8.5,9.2l-8-3l-4.8,6.5l-7.4-1l-13.3,2.2l-5.3-3.7l2.7-8.5
			l2.7-4.8l-6.4-1.1l-0.5-9.5c0,0-10.1,6.9-12.7,14.3c-2.7,7.4-4.8,16.4,9.5,29.2c14.3,12.7,55.7,61,61,71.6s29.7,39.8,49.3,47.7
			c19.6,8,23.9,11.1,28.1,11.1s6.4-3.7,9.5-3.7s11.1,0,13.3-2.1c2.1-2.1,5.8-4.8,8.5-4.2c2.7,0.5,6.1-2.1,9.2-1.6
			c3,0.5,6.2,1.6,7.8-3.2s3.2-10.6,9.5-10.1c6.4,0.5,11.1,0.5,15.4-2.1c4.2-2.7,11.1-2.7,13.8-3.7c2.7-1.1,10.1,0.5,12.2-5.8
			c2.1-6.4,7.4-14.3,9-15.4s9.5-15.9,9.5-15.9s2.7-7.4,2.1-9.5c-0.5-2.1-8.5-13.8-8.5-13.8l-13.9-2.1c0,0-3-5.8,3.8-4.2
			c6.9,1.6,8-4.2,8-4.2l0.5-7.4l7.4-3.2l2.7-9.5l5.8-8l5.8-8.5c0,0,0.5,8,1.6,9.5c1.1,1.6,7.4-0.5,7.4-0.5l7.4-3.2l9.5,3.2
			c0,0,4.8-1.6,7.4-2.1c2.7-0.5,6.4,0.5,6.4,0.5l-3.2,8.5l-4.2,3.7l-5.3-1.1l-5.8-2.7l-4.2-1.6l-4.2,3.2l-1.1,5.3v6.9l1.7,3.7
			l3.9,0.5l4.3-0.5l1.1,1.6v4.2l-3.6,2.9h-3.7l-1.6,4.8l-2.7,5.7l-2.7,4.7c0,0-5.3,2.6,1.6,3.2s6.9,0.5,6.9,0.5l4.2-0.5l5.8-1.1
			l2.1,1.6l-0.5,4.2l-1.6,3.7l-11.1,6.9l1.6,3.7l4.2,3.2l-4.2,3.7l-2.1,2.1l-0.5,3.7l-1.6,5.8l2.7,3.2l4.8,4.2l3.2,3.2l1.1,4.2
			c0,0,4.8-1.1,3.7,3.7c-1.1,4.8,0.5,3.7-1.1,4.8c-1.6,1.1-1.6,1.1-1.6,1.1l0.5,3.2l1.1,4.2l1.6,3.2l4.2,1.6l1.6,4l-1.6,3.5h-3.2
			c0,0,0.5,3.3,0,5.4s0-1.1-0.5,6.3s0,5.8,0,5.8s2.7-2.7-2.1,4.2c-4.8,6.9,0-2.1-3.7,4.8s-3.7,6.9-3.7,6.9l-2.1,4.2l0.5,5.3
			l-0.5,5.8l-2.1,5.3c0,0-2.1,3.7-2.1,6.4s-2.1,6.9-2.1,6.9l-6,3.2l3,8.5v9l1.4,8c0,0-0.2,4.2,1.3,5.8c1.6,1.6,7,3.2,7,3.2l1.7,4.8
			l-3.1,2.7l-0.5,2.1l-0.5,5.3l4.2,3.2l2.2,4.2l-4.7,4.2v2.1l0.3,4.8l2.7,4.8v6.4c0,0-2.8-2.7-2.2,4.2c0.5,6.9-5,4.2-0.2,5.3
			s4.7,1.1,4.7,1.1l3.1-2.1c0,0,1,0.5,3.7-5.3s2.6-5.8,2.6-5.8l3.2-0.5l1.1,4.2l-0.5,4.2l-3.7,4.2l-1.1,3.7l-2.1,5.8l-5.3,4.2
			l-3.2,3.2v4.8l2.3,5.3c0,0,3.7,5.3,2.6,7.4c-1.1,2.1-2.2,8.5-1.1,12.7c1.1,4.2,3.7,8.5,4.8,10.6c1.1,2.1-1.6,5.3-0.5,9
			s0.5,13.3,3.2,15.4s3.2,3.2,3.7,6.9s1.1,8.5,3.2,11.7c2.1,3.2,1.6,4.8,1.6,10.6s-2.1,8,0.5,10.1c2.7,2.1,2.1,9.5,2.1,9.5
			s-3.7,6.4-0.5,11.7c3.2,5.3,6.9,13.3,6.9,13.3s-3.2,18-0.5,26c2.7,8,1.6,10.1,2.7,16.4c1.1,6.4,1.1,15.4,1.1,15.4
			s-2.1,11.7-0.5,19.1c1.6,7.4,7.4,8.5,8,13.3c0.5,4.8-0.5,5.8,1.1,11.1s2.1,5.8,5.3,9s4.2,3.2,5.8,6.4c1.6,3.2,2.7,10.1,2.7,10.1
			l2.1,7.4c0,0,4.8,4.8,5.3,10.6c0.5,5.8,1.1,13.8,3.7,17.5c2.7,3.7,2.1,4.2,4.8,8.5c2.7,4.2,4.2,2.1,4.2,8c0,5.8-2.7,9.5,1.6,13.3
			s10.6,9.5,10.6,9.5s4.2,2.1,5.3,5.3s-1.6,2.7,0.5,5.8c2.1,3.2,1.6,4.8,4.8,6.4s7.4,3.7,7.4,3.7s1.6,5.8,2.1,8.5
			c0.5,2.7-1.1,2.1,2.7,4.8s4.2,0,5.3,3.2s1.1,9.5,1.1,9.5s-2.7,5.8,0,15.4c2.7,9.5,3.2,10.1,3.7,14.8c0.5,4.8,2.7,4.8,4.8,8.5
			c2.1,3.7,4.2,10.1,4.2,10.1s0,8.5,1.6,12.2s3.4,6.4,3.9,9.5s0.2,5.3,0.2,9s0,9,0,9l1,11.7l5.4,17l1.6,10.1l4.3,12.2l4.3,15.4
			c0,0,3.2,5.8,6.4,17.5c3.2,11.7,9.5,22.3,11.7,29.7c2.1,7.4,1.1,8.5,8.5,15.4c7.4,6.9,3.7,8.5,10.6,14.8
			c6.9,6.4,6.4,6.4,10.1,11.7c3.7,5.3,2.7,5.3,5.8,6.4s-0.5,4.8,2.7,11.1c3.2,6.4,10.6,8,13.3,15.9c2.7,8,6.9,18,10.1,28.6
			s0,16.4,3.7,21.7s2.7,4.8,5.8,13.3s6.9,21.2,10.1,27.6c3.2,6.4,2.1,12.2,6.4,15.9s3.7,5.3,6.4,10.6c2.7,5.3,4.2,11.7,9.5,15.4
			s7.4,5.8,6.9,9s-4.8,6.4-2.7,9c2.1,2.7-0.4,6.4,2.7,9.5c3.1,3.2,6.3,5.3,4.2,8.5s-8.5,3.7-9-2.7s1.6-6.9-0.5-11.7
			s-1.1-6.9-2.1-12.2c-1.1-5.3-6.9-19.1-8-12.2c-1.1,6.9,0,12.7,1.1,18s1.1,12.2,3.2,18.6s2.7,11.1,4.8,18.6
			c2.1,7.4,3.2,5.8,5.8,12.7c2.7,6.9,1.1,19.1,8,26c6.9,6.9,10.1,14.3,15.4,19.6c5.3,5.3,18,30.2,29.2,36.1
			c11.1,5.8,15.9,10.1,19.6,14.3c3.7,4.2,3.7,3.7,11.7,6.9c8,3.2,14.3,3.7,20.2-2.7c5.8-6.4,23.3-12.2,30.2-18
			c6.9-5.8,12.7-6.4,13.3-17.5c0.5-11.1,6.4-13.3,6.4-22.3s0-19.1,6.9-24.4s16.4-11.1,22.8-9c6.4,2.1,10.1,4.8,12.2-1.1
			c2.1-5.8,12.2,0.5,16.4-5.8c4.2-6.4,4.8-3.7,17.5-2.7c12.7,1.1,20.7-0.5,24.4,2.1s11.1,4.2,9.5,1.6s-2.1-6.4-5.3-10.1
			s-5.3-4.8-11.7-2.1c-6.4,2.7-18.6,1.1-22.3-3.2s-6.9-8.5-0.5-21.2c6.4-12.7,25.5-26.5,26-36.1s1.6-23.9,8-24.4s11.7-1.6,19.1-2.1
			c7.4-0.5,10.1,0,15.4,0.5s11.1,9,12.7,3.2c1.6-5.8,0-98.1,0-98.1s-3.7-3.7-5.8-9s0.5-14.8,0.5-24.4c0-9.5,1.6-12.7,3.2-18
			c1.6-5.3,10.6-16.4,10.6-16.4s17.5-26.5,19.1-32.9c1.6-6.4,5.3-14.3,5.8-20.2c0.5-5.8,2.1-14.3,2.7-17.5s3.7-18,3.7-18
			s7.4-27,3.2-36.6c-4.2-9.5-6.4-12.2-6.4-13.8s0.5-13.3-1.1-16.4c-1.6-3.2-3.7-6.9-5.8-10.1s-9-20.7-6.4-25.5
			c2.7-4.8,5.3-11.7,5.3-11.7s0-21.7-2.1-28.6s-3.2-8-4.8-13.3s-3.2-11.7-3.2-11.7l-0.5-9.5l1.1-10.6l3.2-9l4.2-9.5l5.3-7.4l3.2-6.4
			l3.7-10.1l4.2-8l5.8-4.2l5.8-2.7l8-2.7l8.5-2.1l5.6-0.5l2.5,2.7v6.4l0.8,5.3l5.3,2.1l5.3-0.5l4.8-2.7l1.6-4.8l2.7-5.8l4.2-3.7
			l4.8-4.8l4.2-5.3l2.7-8.5c0,0,2.1-8.5,3.7-10.6c1.6-2.1,3.7-9.5,3.7-9.5l21.2-1.1c0,0,14.3-2.1,18.6-2.1s12.7-2.1,12.7-2.1
			l9.5-3.7l8-4.2l6.9-3.7l5.3-2.7l3.7-3.7l2.1-4.8l1.6-5.3l1.8-3.7l0.7-5.3v-3.7l-0.6-4.8l-2-2.1c0,0-2.6-0.5-5.8,0s0.6-8,4.8-11.1
			c4.2-3.2,19.1-21.2,28.1-24.9c9-3.7,10.6-5.3,16.4-8.5s12.7-7.4,12.7-7.4l8.5-3.7c0,0-4.2,5.3,7.4-5.3l7.4-6.9l6.4-6.4l4.2-7.4
			l2.7-6.4l8-5.8l6.9-5.8c0,0,16.4-15.9,20.7-16.4c4.2-0.5,10.6-3.2,10.6-3.2l3.7-3.2l3.2-3.2l3.2-4.8l3.2-4.8l5.8-4.2l6.4-6.9
			l5.8-6.9l4.8-8l4.2-6.9l5.8-7.4l6.4-9l4.8-5.3l3.7-6.4l2.7-4.8l7.4-7.4l10.6-9l8.5-6.9l4.2-5.3c0,0,3.2-4.2,0-8.5
			c-3.2-4.2,2.1-13.8,4.8-17.5s11.1-11.7,11.1-11.7l6.4-2.7l4.8,2.7c0,0,1.1,2.1,1.1,4.2s-1.1,5.8-1.1,5.8l-2.1,4.8h4.2l4.2-3.3
			l5.3-4.4c0,0,13.3-3.3,17-4.3c3.7-1.1,11.1-3.8,11.1-3.8l9-1.6l8-3.2l6.4-2.1l4.8-4.2l3.7-5.3l2.7-4.8l4.2-5.3l5.8-4.2l3.7-3.2
			l3.7-2.1l4.8-2.7l3.2-1.6c0,0-0.1-0.5,1-3.2s0.5,1.6,0.5-2.7c0-4.2,0-4.2,0-4.2l-1.9-4.2l1.8-3.2l3.3-4.2l5.4-3.7
			c0,0,10.1-10.6,11.1-12.7c1.1-2.1-3.7-7.4-3.7-7.4v-6.4l-2-5.3l-2.7-4.8l-3.2-4.2l-3.1-4.8l-2-5.3v-6.4l3.2-6.4l6-8l7-6.9l5.9-6.4
			l8.5-3.7l6.4,0.5l5.8-0.5l4.2-2.1l6.9-1.6l8-3.2l6.4-3.2l5.8-3.7c0,0,12.7-8,15.4-16.4c2.7-8.5,6.9-12.2,8.5-13.8s5.8-5.3,6.9-3.7
			s1.1,3.2,0,6.4s-3.2,2.7-3.7,5.3c-0.5,2.7-0.5,3.2,0.5,5.3c1.1,2.1,0.5,6.4,0.5,6.4l-3.7,5.8c0,0-3.2,2.1-2.7,4.8
			c0.5,2.7-1.1,2.1,1.1,4.2c2.1,2.1,6.4,2.1,6.4,2.1l4.2-0.6l1.6,5.2h5.8l3.7-2.2l3.3-3.9l1.1-1.8v-5.3l3.2-4.2l1.2-4.8l1.1-4.2
			l3.8-1.6l2.1,2.1l-1.1,5.8l-2.1,4.8l-2.1,4.8c0,0-2.1,0.5-1.6,3.7s0.5,3.2,0.5,3.2l3.2,3.7l3.2,0.5l2.5-1.6l1-3.7v-5.3l1.3-3.7
			l1.3-3.2l4.5-3.2l1.9,4.2v4.2v4.2l2.1,2.7l3,1.6l4.2-0.5l3.1-1.1l3.7-3.8l2.1-1.6h4.2l4,0.4l2.5-2v-4.8c0,0,3.5,0.5,0.6-3.2
			s-2.6-3.7-2.6-3.7l-0.9-4.2l-1.5-4.2l1.6-4.8l1.6-4.2l-1.1-5.3l-1.6-4.2l1.1-4.8l1.6-4.2l-1.6-4.8l-4.7-5.8l-1.5-5.3v-9l-1.5-4.8
			l-3.8-2.7l-0.8-4.2c0,0,3.3-12.2,3.8-16.4s0.6-9.5-3.1-12.2s-7.4-4.2-5.8-8.5c1.6-4.2,4.8-10.1,4.8-10.1l2.1-5.8
			c0,0,0.5-3.7-2.1-4.2c-2.7-0.5-8-2.1-8-2.1s-3.7,0.5-5.8,1.1c-2.1,0.5-4.7-2.1-4.7-2.1v-6.4l1.2-6.9l0.4-4.2l-4.3-2.7l-4.3-2.7
			l-2.7-3.2l-3.5-2.7c0,0-0.9,2.7-0.9-6.4s0-9,0-9l-0.1-3.7l3.5-3.2l3.1-1.6l2.1-4.8l2.1-4.2l-0.5-4.2c0,0-4.2-5.3-3.7-10.6
			s4.2-14.8-2.1-14.8s-21.2,0-23.9-0.5s-2.7-3.7-5.3-4.2c-2.7-0.5-4.2-2.7-6.9-3.2s-4.8-1.6-6.4-3.2s-2.1-3.7-3.7-5.3
			s-4.2-3.7-5.8-5.3c-1.6-1.6-2.1-5.8-2.1-5.8l2.1-4.2l3.7-4.8l1.6-4.8l0.5-5.3l0.5-5l2.1-1.8h2.7l1.6,3.8l1.6,3.6l3.2,0.5l3.2-1.6
			l2.1-3.7l1.1-3.7l3.2-3.7l1.6-3.2l-0.5-2.7l-0.5-3.7l1.6-2.7l2.7-3.2l32.3,0.5l2.7-2.1l0.6-2.1l0.1-4.2v-4.2l0-4.2
			c0,0-2.8-1.1-4.9-1.1s-3.5-4.8-3.5-4.8l-1-4.2l-1.5-3l-5.3-0.3h-5.8l-7.4-0.4l-6.4,0.5l-2.7-3.7l-2.1-5.3l-2.1-3.7l-1.6-4.2
			l-3.7-2.1l-4.2-4.3l-4.2-2.7h-4.2l-4.2,1l-4.2-0.4l1.6-23.3l3.2-2.6l2.1-3.2l3.2-2.1l4.2-1.6l2.1-2.1l1.6-6.4l1.6-2.7l3.2-2.1
			l3.2-1.6l0.5-3.2l-3.2-2.1l-4.2-2.1l-2.7-4.8l1.1-4.2l4.8-1.6l4.8,3.7l5.8,4.8l4.8,2.1l3.6,1.1l0.9,2.1v4.8l0.8,4.6l4.2,0.9h6.4
			l4.2,0l5.3,0.4l3.7-1.1l2.1-3.2l-3.3-3.2l-5.4-3.2v-4.2l5.6-2.4h5.8l3.2,1.9l2.1,3.7l2.1,6.9l4.2,13.3c0,0,6.4,5.8,9,8
			c2.7,2.1,5.3,2.7,8,3.2c2.7,0.5,6.9-1.6,8.5-1.1c1.6,0.5,4.8,0,4.8,0l2.7-3.2v-4.2v-4.8v-4.8l4.2-1.9h4.2c0,0-1.1-2.4,3.2,1.3
			c4.2,3.7,4.2,3.7,4.2,3.7l1.6,4.8l1.1,3.7l0.7,3.7l0.7,2.7v3.7c0,0-0.1-0.5-1.1,3.7c-1.1,4.2-0.7,4.2-0.7,4.2s-1.4-1.1-0.4,3.2
			c1.1,4.2,1.1,4.2,1.1,4.2s-0.9,0.5,1.5,4.2s1.5-1.6,1.5,3.7s0,5.3,0,5.3l-1,5.3c0,0,0,0.5,0,6.4s0,5.8,0,5.8s-2.4,0.5,1.3,5.8
			c3.7,5.3,4,5.3,4,5.3l4.4,1.6l7.5,1.1l5.9,0.5c0,0,13.8,1.6,18,3.7c4.2,2.1,11.1,2.1,14.9,1.6s7.4-3.2,11.1-2.7
			c3.7,0.5,9-0.5,12.2,0s6.9-0.5,9-0.5s8-1.1,8-1.1s14.3-4.2,18-3.7c3.7,0.5,6.4,0,10.1,1.1s5.3,0,8.5,0.5c3.2,0.5,6.4-0.5,9-0.5
			c2.7,0,8-2.1,8-2.1l6.4-3.2l6.4-1.1l5.8-0.5l6.9,1.1l6.4-1.1l4.2,1.6l3.2,3.7l3.7,2.1l3.7,1.8c0,0,0.5,0.2,4.2,0.2
			c3.7,0,3.7,0,3.7,0l2.1,1.8l2.7,2.3l2.1,2.8c0,0,1.6,1.6,2.7,3.8c1.1,2.1,1.1,2.2,1.1,2.2l-1.1,4.3l-3.2,2.1l-4.8-1.1l-1.6-2.1
			l-2.1-3.2l-2.1-1.1l-3.2,1.1l-2.1,2.7l-0.5,3.7l2.1,3.7l2.1,2.7l0.5,3.2l-1.6,5.3c0,0-0.5-4.8-2.7,4.8c-2.1,9.5,1.6-4.8-0.5,3.7
			s-1.6,4.2-1.6,4.2l-0.5,4.2l-1.6,3.7l-2.1,3.7c0,0,0.5-0.5-4.2,0.5s-2.1-2.1-4.8,1.1c-2.7,3.2-2.7,3.2-2.7,3.2l-1.6,3.2l0.5,4.2
			l1.1,5.8l-2.7,3.2l-4.2-0.5l-2.7-1.6l-4.2,1.1l-4.2,2.7l-5.3,2.1l-1.6,4.6l-3.2,2h-4.2l-3.7-0.5l-5.3,3.3l-4.2,4.3l-3.2,4.8
			l-3.2,6.4l-1.1,5.3l-2.1,12.2l0.5,5.8l-1.6,6.9l3.2,5.8l5.8,5.8l3.5,4.8c0,0,0.9,5.3,0.9,7.4s0,6.4,0,6.4l1.4,4.8l1.3,3.2l2.3,2.1
			l3.3-5.7l2.7-3.1h4.2l3.7,1.9l1.6,4.3l2.1,6.9l2.1,4.2l3.2,2.1l5.3,0.5l5.3-3.2l3.2-4.8l1.1-4.8l-1.6-5.3l-1.6-5.3l-0.5-4.2
			l1.6-5.3l2.1-3.2l2.7-3.7l2.7-4.8l0.5-4.2l-0.5-5.8l-1.1-5.3l1.6-6.4l4.2-0.7l4.2,3h3.7l3.2-3.7l2.7-2.2l3.7-2.2h3.7l3.7,2.4
			l2.1,6.4c0,0-0.5,0.5-2.1,4.8c-1.6,4.2-1.6,4.2-1.6,4.2s-2.1,0.5,2.1,4.2s3.9,3.7,3.9,3.7l2.8,3.2v5.3l-1.6,5.3l-1.5,3.2l1.6,4.2
			l2.7,3.7l1.6,4.2c0,0-1.6,14.8,4.2,20.7c5.8,5.8,9.5,14.3,9.5,14.3l1.6,5.8l2.9,6.4l1.9,6.9v6.9l2.5,6.9l1.3,8.5l0.2,6.4v4.8
			l4,1.6l4.2,1.1l2.4-3.7l3.3-3.2l5.4,1.1l4.8,2.7l5.3,4.8l4.3-0.5c0,0,3.7-7.4,3.7-12.2s3.9-5.8,3.9-5.8l1.8-5.3c0,0,0-4.8,0-6.4
			s0-6.4,0-6.4l-3.2-6.9l-1.7-8l-1.9-5.8c0,0-2-6.4-2.6-8s-1-6.9-1-6.9l-0.5-8l1.6-5.3l2.1-5.3l4.8-3.2l4.8-1.1l4.1-2.1l2.5-5.3
			v-5.8v-7.4c0,0,0-18.6,0-23.3s0-11.7,0-11.7v-8.5v-5.3l-1.1-5.8l-2.8-4.2l-3-4.8l2.2-6.9l4.8,2.1l2.7,3.2l4.3,2.7l3.7-0.5l3.7-2.7
			l5.3-1.1l5.8,2.1l3.7,2.6h5.3c0,0,2.1,0,6.4,0s4.2,0,4.2,0s0.5,0.7,5.3,3.4c4.8,2.7,4.8,2.6,4.8,2.6l2.7,1l4.8-5.8l-1.1-10.1
			l1.1-9c0,0,8.5-19.6,10.6-27.6c2.1-8,5.3-14.8,7.4-19.6s5.8-11.7,5.8-11.7l5.8-11.1l1.5-9.5l1-6.9v-6.4l-5.6-3.7l-7.4-2.1v-5.8
			l2.2-5.3l1-7.4l3.4-5.3l5.4-2.7l6.9-5.3c0,0,4.8-7.4,4.8-9s1.1-4.2,1.1-4.2l1.3-2.7l1.9-3.7v-4.8l-1-4.8v-5.3l4.1-4.2l4-4.2
			c0,0,2.3-0.5,1.7-4.8c-0.5-4.2-0.5-4.2-0.5-4.2l-0.5-6.4c0,0,2.1,1.1,0-5.8s-2.1-6.9-2.1-6.9l-2.1-6.4l-2.6-4.2
			c0,0-3.7,0.5-1.1-5.8c2.7-6.4,2.7-6.4,2.7-6.4l3.2-4.8c0,0,5.3-3.7,8.5-3.2c3.2,0.5,6.4-3.2,6.4-3.2l5.3-6.4l3.7-3.2l5.8-1.6
			l3.2-3.2l3.7-5.8l2.7-4.2l5.3-3.7l4.2-4.2l5.8-2.1c0,0,0.5,1.1,3.2-4.8c2.7-5.8,2.7-5.8,2.7-5.8s6.9-6.4,9-8c2.1-1.6,8-6.6,8-6.6
			l6.9-2.9h6.4l7.4-3.6l4.8-2.5l3.2-3h5.8l4.2,2l3.7,2.7c0,0,0.5,0,3.2,3.7c2.7,3.7,2.7,3.7,2.7,3.7s0.5-0.5,3.2,3.2
			c2.7,3.7-1.6,1.6,2.7,3.7c4.2,2.1,4.2,2.1,4.2,2.1s0.5,1.6,4.2,0.5s1.3,1.6,3.4-1.1c2.1-2.7,1.8-2.7,1.8-2.7v-4.8l-8-9l-6.3-4.8
			l-2.6-4.8l-1-6.4c0,0,0.5-11.7,1.1-13.3s6.9-9,6.9-9l5.3-5.8l5.8-7.4l5.3-4.2l6.4-2.7l3.7-3.2l1.1-5.3l-4.2-2.7l-3.7-2.7l-1.6-3.2
			l1.6-4.8l1.6-3.7l-5.8-7.4l-5.3-0.5l-4.2,0.5l-2.7-0.5l-3.2-3.7l-5.3,1.1l-3.2,1.6l-1.6,2.7l-3.2-2.5l-3.7-2.5h-2.1l-4.2,0.8
			l-3.7-0.5l-3.7-4l-3.2-1.3h-3.7l-4.2,1.2l-3.2-0.6c0,0,0.5-0.6-4.2,4.2c-4.8,4.8-2.7,2.1-4.8,4.8s-2.1,2.6-2.1,2.6l-4.8,0.5
			l-0.5-6.9l0.5-8l3.2-5.3l3.2-4.2l2.1-3.7l2.1-4.8l1.1-4.8l0.5-5.8l-2.7-5.3c0,0-1.6-14.3-11.7-14.3s-13.8,3.2-14.8,5.3
			s-3.2,5.3-3.2,5.3l-5.3-4.2l-1.6-5.8l2.7-5.3c0,0-1.1-1.6,4.8-3.7c5.8-2.1,2.7,1.1,5.8-2.1c3.2-3.2,3.2-3.2,3.2-3.2l-2.1-7.4
			l-5.3,1.1l-3.2,1.6l-3.8-1.6v-6.4l-1.9-4.2l-4.5-4.2l-5.2,0.5l-4.2,2.7l-3.2,4.2l-4.2,4.8l-5.3,2.1l-5.8,2.7l-5.8,4.8l-4.2,4.8
			l-4.2,5.3l-1.1,7.4l-3.7,6.4l-5.3,2.1l-4.8-1.1l-3.2-2.7l-2.7-2.1l-6.9,0.5l-3.2-2.1l-4.8-3.1l-4.8,1.1h-5.8l-6.4-0.2l-3.7-4.8
			l-4.2-5.3l-4.2-2.1l-4.2,2.1l-2.7,2.7l-2.1,4.2l-0.5,2.7l-4.8,1.6h-5.3l-6.4,1.4l-3.2,3.2l-3.2,5.3l-0.5,3.7l-0.5,4.8l-6.4,5.3
			l-4.2,3.7l-1.6,3.2l-1.1,4.2l-2.7,2.1l-1.9,3.2l-1.4,4.2v6.9l-14.9-1.6l-6,1.1l-4.1,3.2l-4.7,1.1l-8.4,0.5l-6.9-0.5l-5.3,2.7
			l-2.4,4.2l-1.3,2.7v3.7l0.4,2.7l-1.5,3.2l1.6,2.1l2.1,3.7l-1.1,4.2l-1.6,2.7l-4.2,1.6l-6.4-0.5l-4.8,2.7l-3.7,3.7l-4.2,4.2
			l-4.2,2.7l-5.8,2.1l-5.3,3.2l-1.6,3.7l1.1,5.3l1.1,4.8l-1.1,4.8l-2.1,2.7l-3.2,3.2l-4.8,2.7l-3.7,3.7l-5.8,1.6l-4.2-2.1l-3.2-2.1
			l-4.8-0.5c0,0-0.5-0.5-4.8,3.2c-4.2,3.7-4.2,3.7-4.2,3.7l-3.7,4.2l-5.8,4.8c0,0-2.1,3.2-6.4,0c-4.2-3.2-4.2-3.2-4.2-3.2l-4.8-3.7
			l-3.2-4.2l-5.8-1.6l-3.2,2.7l1.1,4.8l1.6,2.7l-2.7,3.7l-2.7,3.7l-0.5,4.2l2.1,2.7l2.1,3.2l12.2,6.4l5.3-1.1l4.2-1.1l4.8,1.1
			l4.8,1.6l3.2,3.2l1.1,4.8l0.5,3.7l-1.6,5.8c0,0-3.2,1.1-1.1,4.8c2.1,3.7,2.1,3.7,2.1,3.7l4.8,5.3c0,0,3.2-0.5,4.8,5.8
			c1.6,6.4,1.6,6.4,1.6,6.4l-1.1,5.3l-4.2,3.2l-4.8-1.6l-3.7-3.2l-5.3-0.5l-3.7,2.7l-3.2,4.7l-6.4,6.3h-5.3c0,0-1.1-3.8-6.4-1.6
			s-5.3,2-5.3,2l-4.2-0.6c0,0-1.1-4.3-4.2-1.6c-3.2,2.7-3.2,3.5-3.2,3.5s1.1,2.4-4.8,2.4c-5.8,0-5.8,0-5.8,0l-4.8-3.1
			c0,0-1.6-2.5-4.8-0.9s-3.2,1.4-3.2,1.4l-5.3,2c0,0,0.5-0.1-4.2,2s-4.8,2.5-4.8,2.5h-8l-15.4-0.6l-3.2-1.2l-4.8-2.7l-3.2-3.8
			l-4.2-1.1l-3.7,2.6c0,0-1.6,2.1-5.8,2.6s-4.2,0.5-4.2,0.5l-2.7,3.7c0,0,3.2,0.5-0.5,4.2s-3.7,3.7-3.7,3.7l-5.8,2.1l-6.9,0.9
			l-5.8-0.1h-4.2l-6.4-2.1l-6.4-1.2l-5.3-2.7c0,0,3.2-2.7-3.7-3.7s-6.9-0.6-6.9-0.6l-5.3-0.6h-4.2c0,0-4.2-0.1-9,2.6
			s-4.8,2.5-4.8,2.5l-4.8-1.7c0,0-0.5-1.1-2.7-5.3s-2.1-4.3-2.1-4.3s0-0.5-4.2-1.1s-4.2-0.5-4.2-0.5s-1.1,0.5-3.2-3.7
			s-2.1-4.2-2.1-4.2s1.1-2.1-2.1-4.2c-3.2-2.1-3.2-2.1-3.2-2.1l-5.8-1.6c0,0,3.2-9,4.8-9s3.2-3.2,3.2-3.2l-1.6-5.8l-2.1-4.8
			l-1.6-4.8l1.1-5.8l-0.3-4.2l2.3-4.8v-5.8l-0.1-5.3l2-5.3l0.4-5.8l-0.6-6.9l-4.3-5.8l-4.8-3.2l-4.8-4.2l-5.8-0.5l-6.4,2.7l-5.8,4.2
			l-4.2,3.7l-4.2,3.7l-4.8,3.5l-6.9,0.3h-5.3l-4.2,3.8l0.5,2.8l2.7,4.1l1.6,3.6l-1.1,4.7l-1.1,4.8l-4.2,5.8l-2.7,4.8l-0.5,5.8
			l-0.5,6.4l1.6,6.4l1.6,4.8l-0.5,4.8l-3.2,6.9l-1.1,4.2l3.2,6.4c0,0-7.4-9,3.7,5.3l4.2,4.2l3.2,3.7l3.2,4.8l1.1,5.8l-1.1,6.9
			l-1.1,7.4l-2.7,3.7l-1.6,4.8l0.5,5.8l-3.7,4.2l-3.7,1.1l-4.8-4.2l-5.3-1.1l-7.4,0.5l-5.3,1.6l-2.7,3.7l-5.3,1.6l-4.2-2.7l-4.8-1.6
			l-3.2,2.7l-3.7,3.7l-5.3,2.1l-2.7-2.7l-5.3-1.6l-5.3-0.5l-4.2-3.2l-1.1-5.3l-1.6-7.4c0,0-6.3-2.3-10.3,8.1s-15.9,9.5-15.9,9.5
			l-5.6-1.6l-4-4l-5.6-4l-6.4-4l-7.2-3.2l-8,0.8l-8,2.4l-6.4-2.4l-5.6-0.8l-6.4,0.8l-3.2,2.2l-4,0.6h-6.2l-2.6-6.3l-0.8-5.4
			l-2.4-4.7l-4-4.7l-4,0.8l-8,3.6l-4,2.8h-4.1l-7.1,2.1l-4.8,0.6c0,0-2.4,1.5-4.8-2.5c-2.4-4-2.4-3.7-2.4-3.7s-0.8-0.5-7.2-0.5
			s-6.2,0-6.2,0s3-1.2-1.8-6c-4.8-4.8,2.4-2.3-4.8-4.7c-7.2-2.4-7.2-2.3-7.2-2.3h-8.6c0,0-5,4.5-6.5-2.7c-1.6-7.2-1.6-7.2-1.6-7.2
			l2.4-9.6c0,0,3.2-9.6-12.7-8.8c-15.9,0.8-20.7-5.6-20.7-5.6l-4-4.8l-6.4-4.8l-4,4c0,0,5.6,1.6-3.2,2.4c-8.8,0.8-1.6,0-8.8,0.8
			c-7.2,0.8-2.4-1.6-7.2,0.8c-4.8,2.4-4.8,2.4-4.8,2.4l-8.8-4.8l-7.2-2.4c0,0-3.2-3.2-9.5,0.8s-6.4,4-6.4,4l0.8,4l-2.4,1.6l-4.8-0.8
			l-6.4-4c0,0-9.5-1.6-11.9-1.6s-4.8-5.6-8-4.8c-3.2,0.8-10.3,0-10.3,0l-2.4-5.6l-2.4-8l-3.2-4.8l-8,2.4l-6.4,2.4l-8-0.8l-5.6-4.8
			l-8-6.4c0,0,3.2-2.8-6.4-6c-9.5-3.2-9.5-3.6-9.5-3.6h-5.7l-6.3,4.3l-6.4-0.6c0,0,0.8,0.1-5.6-4.7c-6.4-4.8,1.6,0.9-6.4-4.7
			c-8-5.6-8-5.5-8-5.5s1.6,0-6.4-4.8c-8-4.8-4,1.6-8-4.8s0,0-4-6.4s-4-6.4-4-6.4l-11.1-10.3l-17.5-5.6l-6.4-1.6l-9.5-3.2l-6.4-6.4
			l-6.4-6.4l-3.2,4l-4,2.4c0,0,5.6,8.8-7.2-3.2s8,7.2-5.6-4.8c-13.5-11.9-18.3-25.5-14.3-30.2c4-4.8,11.9-13.5,11.9-13.5
			s1.6-6.4,0.8-10.3c-0.8-4-0.8-12.7-0.8-12.7l6.4-4.8l4-5.6l0.8-5.6l-1.6-7.2l3.2-7.2l8-3.2l4.8-6.4c0,0-2.4-3.2,4-5.6
			s6.4-2.4,6.4-2.4l4-6.4c0,0-1.6-3.5,5.6-5.9c7.2-2.4,7.2-2.7,7.2-2.7h8.1l-0.2-5.9l-14.3-4.6l-5.6-8.7l-11.9-8.7l-9.5,2.4
			l-4.8-3.2l-8-4.8l-11.1-4.8l5.6-14.3c0,0-19.1-9.5-25.5-13.5c-6.4-4-13.5-7.2-13.5-7.2l-7.2,3.2l-4.8,0.8l-24.7-20.7l-1.6-10.3
			l-5.6-6.4l-6.4-4.8l-9.5,11.9l-6.4,2.4l-1.6-4.8l-1.6-5.6l-5.6-5.6l-4-4l4-4.8l4-4l0.8-4l-5.6-4.8l-3.2-4l0.8-7.2
			c0,0,4,4.8,3.2-6.4s1.6-5.6,1.6-5.6l-2.4-5.6l-4.8-5.6c0,0-4.8,5.6-5.6-4.8s0-6.4,0-6.4s9.5,0-0.8-4c-10.3-4-8.8-0.8-8.8-0.8
			l-1.6-3.2l2.4-4.8l2.4-4l-2.4-7.2l-4.8-5.6l3.2-6.4c0,0,1.6,1.6,7.2,0c5.6-1.6,5.6-1.6,5.6-1.6s-1.6-2.4,2.4-3.2
			c4-0.8,4-0.8,4-0.8l4,5.6l3.2,8.8l2.4,8l4.8,3.2l4.8,1.6l4.8-0.8l4.8-4l1.6-4.8l4.8-1.6l5.6-0.8l2.4-6.4l5.6-0.8l4.8,1.6l4.8-2.4
			l4.4-5.6l2.8-4.8v-4.9l-13.9-16.6l0.9-11.1l0.9-8v-7.3l-1.5-3l-7.6-2.4l-7-0.8l-7.9-1.6l-4.7-2.4l-3.2-3.2l-2.4-6.4l-0.8-7.2
			l2.4-4.8l5.6-1.6l2.4-4l-2.4-8l-5.6-8l-4-7.2l2.4-8l4.8-0.8l5.6,2.4c0,0,1.6-3.1,6.4-3.1c4.8,0,4.9,0,4.9,0l6.2,3.1l6.4,0.8
			c0,0,1.6-9.5,4.8-11.9c3.2-2.4,8-8.8,8-8.8l0.8-5.6l-2.4-5.9l0.8-6.7h7.9l4.9,0.4l6.4-13l1.6-5.7l6.4-2.5c0,0-0.8,3.9,4.7,0
			s5.6-4,5.6-4s1.6,2.4,2.4-8c0.8-10.3,0.8-10.3,0.8-10.3l0.8-8.8c0,0,0,0,4-10.3s1.6-1.6,4-10.3c2.4-8.8,2.4-8.8,2.4-8.8l-0.8-8.8
			c0,0,2.4-1.6,0-8.8s0-3.2-2.4-7.2s3.2,0.8-2.4-4c-5.6-4.8-5.6-4.8-5.6-4.8l-9.8-8l-2.2-4l-9.5,0.8l-4.8-0.8l-3.2-0.8l-10.3-2.4
			l-7.2-3.2l-4-7.2l-5.6-1.6l-6.4,2.4l-2.4,3.2l-2.4,4.8l-3.2,0.8l-8.8-0.8l-8-0.8l-9.5,1.6l-9.5,4l-7.2,3.2l-4.8,4l-6.4-2.4
			l-7.2,3.2l-4.8,6.4l-5.6,7.2l-4.8,3.2l-7.2-3.2l-4.8-1.6l-3.2,5.6l-1.6,3.2l-4,0.8l-6.4-3.2l-7.2,1.6l-8.8,2.4l-6.4,0.8l-4.8-2.4
			l2.2-4.8l0.6-4v-4.9c0,0,0.9-0.6-2.2-5.4c-3.2-4.8-3-4.8-3-4.8l-7.9-2.4l-6.3-2.4l-6.3,0.8l-5.6-1.6l-7.2-0.8l-6.4-6.4l-4.8-17.5
			l-2.4-4.8l-7.2-1.6l-11.9-12.9l-1.6-5.7h-6.5h-5.3l-3.3-3.9l-4-5.1l-4.2-3.3l-8.5-1.7l-7.2-4l-6.4-7.2l-6.4-6.4c0,0,0,0-7.2-7.2
			c-7.2-7.2-7.2-7.2-7.2-7.2l-5.6-7.2c0,0-2.4-0.8-3.2-7.2s4.8-7.2-0.8-6.4c-5.6,0.8-5.6,0.8-5.6,0.8s-1.6,0-3.2,3.2s2.4,0-1.6,3.2
			c-4,3.2-4,3.2-4,3.2s0.8,3.2-4.8,1.6s0.8-0.8-5.6-1.6s-6.4-0.8-6.4-0.8l-6.4-8.8l-4-2.4l-8.8,0.8l-8,9.5l-8,2.4l-7.2,0.8
			l-14.3,5.6l-7.2,5.6l-11.1-9.5h-3.3l-5.4-1.5l-1.2,5.5l6,5.5v5.4l-10.8,1l-39.5-2.4c0,0-3.1-0.8-4.7,5.6c-1.6,6.4-1.5,6.4-1.5,6.4
			l-5.5,6.4l-6.3,5.6l-5.6,5.6l-2.4,6.4l-7.2,5.6l-10.6,0.8l-5.8,4.8v6.5l2.6,6.3l1.4,6.4l-2.1,4.8l2.5,3.6l7.3,2h5.7l6.2,1.2
			C924.7,286,931.8,291.3,936.2,288.8z"/>
		<g id="XMLID_706_">
			<path id="XMLID_166_" class="st1" d="M1091.9,608c0,0,3.7-1.6,10.1,1.6s9,5.8,9.5,0c0.5-5.8,8-8,14.3-12.2
				c6.4-4.2,9-7.4,10.6-10.6s3.2-3.7,3.2-8.5s-3.7-11.1-4.8-17c-1.1-5.8,4.2-8.5,9-4.2c4.8,4.2,6.9,1.1,8.5-2.1
				c1.6-3.2,0.5-9.1,5.3-7.5s5.8,5.3,8.5-0.3c2.7-5.6,3.7-13,10.6-15.1c6.9-2.1,13.3,0,19.1,1.1c5.8,1.1,9.5-3.2,12.7,2.1
				c3.2,5.3,7.4,12.7,14.8,19.1c7.4,6.4,14.3,3.2,19.1,8.5s6.9,5.3,11.7,3.2s8.5-8.5,15.4-10.1s10.1-0.5,12.2,5.3s6.9,6.9,9,14.3
				s0.5,10.6,8,10.6c7.4,0,11.7-3.2,14.8-4.8s6.9-8.5,9.5-1.6s-3.2,12.2,1.6,13.8s14.8-2.1,16.4-0.5"/>
			<path id="XMLID_169_" class="st2" d="M1366.2,700.7c0,0-1.9,6.2-1.4,7.8s3.3,4.7,3.3,4.7l3.2,4.7l-1,4.2c0,0-1.6,2.4-3.2,2.8
				c-1.6,0.4-5.8-0.7-5.8-0.7l-2.1-3.7c0,0-0.5-2.1-2.1-2.6c-1.6-0.5-4.2-1.5-4.2-1.5h-4.8l-1.1-3.7l-4.8-0.7l-5.8-0.5l-5.3-0.5
				l-5.8-1l-3.2-2.6h-5.3l-2.7,0.9l-3.7,2.4l-3.7,2.3l-3.7,1.3l-2.7,0.5c0,0-10.6,2.1-12.7,3.2s-5.8,7-5.8,7l-3.2,5.2l-2.1,2.7
				l3.2,3.2l2.1,4.2l-1.1,4.2l-4.4,3.7l-1.7,3.2v4.8l2.4,6.4l0.5,5.8l-1.6,5.3l-3.7,3.2l-5.4,2.1l-1.2,1.6v2.7l1.8,3.2l4.2,2.7
				l6.9,1.6l8.5,4.8l5.3,3.7l3.2,3.7l-1.1,6.9l-5.3,3.2l-4.2,3.7l-2.1,2.7l-2.1,5.8l-1.1,5.3l-1.1,4.2l1.1,5.8l1.6,6.4l2.1,3.2
				l3.2,1.1l4.2-1.6l3.7,4.8l2.7,5.3l3.2,1.6l3.7-1.1c0,0-3.2,4.2,4.8-4.2s3.7-3.7,3.7-3.7l4.2-4.8l5.3-3.7c0,0,0.5-3.7,4.8-1.6
				c4.2,2.1,4.5,2.1,4.5,2.1l1.3,4.2v4.2l1.5,1.7l1.7,0.1h5.3l3.7,2.4l4.8,1.6l3.2,2.4l4.2,2.8l4.2,2.2l3.2,3.2c0,0,0,1.6-1.1,3.7
				c-1.1,2.1-4.8,2.1-7.4,3.7s-3.7,4.2-3.7,4.2l4.8,4.2l3.2,4.2c0,0,1.1,4.8,3.2,6.4s5.8,1.1,5.8,1.1l5.3-2.1c0,0,4.8-0.9,5.8,2.2
				c1.1,3.1,4.2,7.3,4.2,7.3l9,5.3l5.8,2.7l1.6,6.9l2.7,4.8l7.4-1.1l6.4-1.1l6.9,0.5l5.3-2.7l6.4,2.1l3.7,4.8l2.7,4.2l5.4,0.5
				l3.6-2.7l4.8-6.4l6.9-7.4"/>
			<path id="XMLID_170_" class="st2" d="M1134.4,589.8l6.2,6.5v5.8l-4.6,2.7l-5.4,2.7l-2.7,5.6l-3.7,5.6l-2.1,4.2l-2.7,4.8l1.6,4.8
				l4.8,4.2l8,2.1l6.6,3.7l3.4,5.3l-2.7,12.7l1.6,3.2l3.2,4.2l3.2,5.3l3.2,5.8l2.1,5.3l1.6,6.4l1.1,5.6l3.7,1.9h4.8l3.7-4.2l1.6-3.8
				l4.4,0.5l3.3,2.6v5.3v4.6h4.5l6.4-0.8l1.6,3.7l0.5,5.3v5.8l-0.4,4.8l-1.1,2.8l3.9,5.2l5.9,3.7l4.3,2.1l2.7,7.4l5.3-1.1l5.3-1.6
				l4.8,4.1l2.7,3.6h4.8l3.2,3.7l1.6,24.8l10.6,5.2l7.4-1.6c0,0,5.3,1.6,6.9,3.2c1.6,1.6,6.1-0.5,6.1-0.5"/>
			<path id="XMLID_172_" class="st2" d="M980.7,788.4l3.4,6.1l-1.5,6.2l-2.6,5.8l2.1,5.8l8,3.6l15.4,1.3l28.1,1.2h11.7l9-1.9
				l5.8,1.9l5.3,4.5l6.4,2.1l6.9,4.2l3.7,6.4l-1.6,12.4l1.6,3.4h4.2l4.2-3l2.7-4.8l2.7-5.9l4.2-3.2l4.8-0.5l4.2,2.6l4.2-1.1l5.8-3.2
				l4.2-1.6l5.8,1.6l3.7,3.7l3.7,2.7l4.8-0.5c0,0,1.1,0.5,4.8-3.2c3.7-3.7,3.7-3.7,3.7-3.7l2.7-1.1l2.7-3.7v-5.8v-4.8l4-3.7v-5.3
				l2.1-1.6l4.3,3.2l6.4-4.2l2.1-2.1l3.2,5.3l4.8,0.5l3.7-2.1l3.2-3.2l-1.6-5.3l-1.6-3.2l4.2-3.7l4.8-3.6l3.7-2.5h3.7l3.7,2h3.2
				l2.5-2.8l1.5-4.2v-6.9l-1.3-8l-1.9-5.3l-6-3.2l-5.9-2.7l-3.7-2.7l4.2-4.2l7.6-4.3"/>
			<path id="XMLID_253_" class="st2" d="M1260.3,784.5l-1.2,7.7l-3,4.5l-2,1.7l-1.5,2.1l-1.6,5.3l-1,5.3l-3.2,3.2h-5.3l-6.7,0.4
				l-4.1,8.1v5.8l1.6,5.3l-1.2,4.2l-3.3,2.1l-4.3,4.8l-1.1,2.7l-1.6,4.8l1.6,6.4l1.1,5.3l0.5,4.2l1.6,4.2c0,0,2.1,0.5,1.6,3.7
				c-0.5,3.2-1.1,6.4-1.1,6.4l-1.6,5.8l1.1,6.9l3.2,4.2l3.7,3.7l1.6,4.2l0.5,5.3l-1.1,4.2l-0.5,6.4l2.7,5.8l3.2,5.3l1.1,5.8
				c0,0-4.2,4.2-1.1,8c3.2,3.7,2.1,3.2,2.1,3.2l12.8,4.8l1.1,2.7l-0.5,4.2l-1.1,3.2l-2.7,3.2l2.1,3.2l2.1,4.2l-0.5,6.9l-3.7,5.8
				l-0.5,10.6l-0.5,3.7l-4.2,2.1l-2.1,1.1l-5.3,2.2l-5.3,1.7h-6.9l-6.9,0.8l-4.8,2.1c0,0-3.7,7.4-7.4,6.4c-3.7-1.1,0-11.1,0-11.1
				s0.5-20.2,0.5-24.9s-1.1-8.5-5.3-8.5c-4.2,0-10.6-1.1-13.8,5.8s-4.2,9.5-6.9,11.1c-2.7,1.6-5.8-1.1-5.8-1.1l-1.6-5.8l-2.7-6.9
				l-4.1-2.7l-7.2,2.1v12.2l-12,1.1v14.8l-17.7,0.5c0,0-2.9-5.8-0.2-9c2.7-3.2,3.6-7.4,3.6-7.4l0.5-3.2l-0.6-4.2l1-4.8l5.3-2.7
				l0.5-3.7c0,0-4.2-8.5-10.6-11.7s-8-8-10.1-9s-4.8-4.2-4.8-4.2l-3.7-3.7l-1.6-4.8l-6.9-2.1l-1.6-11.1l-1.1-9.5l-4.8-4.8l3.7-6.9
				l1.6-1.9l-6.7-4.5l-3-4.2v-5.3l2.1-5.3l-2.5-4.2l-3.5-2.1l-4.3,1.6l-3.2,1.7l-5.3,0.1h-5.3l-5.8-3.4l-3.7-5l-3.7-4.4l-6.9-0.6
				l-7.4,2.6l-4.7,3.2l-3.7-1.6v-5.8l-4.7-6.4l2.6-1.6l2.6-3.2l-0.6-4.2l0.5-4.2l1.1-3.2l1.1-4.2l-0.5-3.7l-5.8-0.5l-5.2-0.5v-2.7
				l3.2-4.8l1.5-8.5"/>
			<path id="XMLID_264_" class="st1" d="M1209.8,950.4"/>
			<polyline id="XMLID_279_" class="st2" points="1233.4,919.6 1220.8,919.3 1212.6,919.7 1211.2,923.5 1210.9,928.5 1209.8,931.7 
				1208.7,934.2 1203.4,937.3 1200.6,940.2 1200.6,943.2 1203,946.5 1208.5,946.2 1212.5,946.3 1218.1,946.3 1221.1,948.7 
				1223.6,952.2 1226.1,955.9 1230.3,958.1 1234.2,956.7 1240.8,951.6 			"/>
			<path id="XMLID_284_" class="st2" d="M1238.3,1009.4l1.3,15.8v8.6l4.3,8.1l5.4,5.6l1.5,5.6l6.4,2.4l3.3,3.2v4.9l3.1,3.8l-10,8.3
				l1.1,3.6h9.4h5.8l-24.8,16.2l3.2,10.2l8.8-2.5l8.4-8l5.9-3.2l11.9,1.6l9.5,3.2l6.4-8l6.1-1.6l6.1,4v5.7l-16.6,13.4l-11.8,6.4
				l-11.9,7.2l-35.8,19.1l-19.1,11.1l-18.3,15.9l-24.7,11.9v17.4l2.3,13.6l3.2,12.7l10.4,6.4l12.7-2.4l15.9-1.6l8-3.2l8-6.4l5.6,2.4
				l-0.8,9.5l1.9,8l-1.9,10.1l-10.3,3.8h-13.6l-12.6-1.3l-5.6,3.3l1.6,7.2l3.1,6.4l-6.3,4l-5.6,5.5l4.8,4h10.5h4.8l1.4,7.2l2.4,8.7
				l-3.6,7.2l-5.9,4l-8.8-7.1h-5.7l4.1,12.6l4,7.2l3.9,5.6l-4.7,7.1l-6.4,1.5h-7.8l-4.9-6.2l-1.6-3.2l-5.6,1.6l-3.2,2.4l-8-1.6
				l-6.4-1.6l-8.9-2.4l-6.5-3.2v8.6l-5.4,7.3l-7.9,4.8l-7.1,9.5l-4.8,4l-6.4,1.6l-8,4c0,0-8.7-4.8-12.7-9.5
				c-4-4.8,1.6-11.9,7.2-11.1s11.1,0.8,13.5,0s1.6-4,1.6-4l-4-4l4-5.6l2.4-5.6l-3.2-3.2l-0.8-5.6l1.6-4.8l9.5-3.2l4-6.4l-2.4-6.4
				c0,0-2.4,1.6-4-4c-1.6-5.6,3.2-0.8-1.6-5.6c-4.8-4.8-4.8-4.8-4.8-4.8l-8.8,4l-7.2,2.4l-7.2,0.8l-8,1.6l-10.3-4.8l-5.6-9.5
				l6.4-5.6l5.6-2.4l2.4-7.2l-3.2-5.6l-5.6-3.2l-5.6,7.2l-4.8,7.4l-3.2,1.8h-4.1l-7.8-5.7l-8.8,8.6l7.2,7.1l4,0.8l-2.4,4.7l-5.6,1.5
				h-6.2l-2.5,5.6l-2,5.6l3.6,3.2l1.6,4l-5.2,7.2l3.6,3.2l1.6,4l6.4-0.8l3.8,4l-1,4.8v6.3l5,3.3v7.8l-5,5.7v6.5
				c0,0,3.9,16.5-2.5,22.9c-6.4,6.4-21.2,11.1-21.2,11.1l-5.4,4.8c0,0-3.1,3.8-1.5,6.2c1.6,2.4,5.6,3.8,5.6,3.8h5.7l0.7,6.6l-8,7.2
				l-18.3,3.2h-6.2l-4.1-5.6l-5.6,2.4l-3.2-2.4l-3.2-7.1l-3.2-4l-5.6-3.2l-5.6-4l-6.4-1l-3.2-4.2h-10.5l-3.5-5.1v-8.9l-1.4-6.3
				l-6.2,0.8l-3.9-2.4l-3.9-8.8l-6.3-4.8l1.6-8l3.2-7.2v-5.4l-3.3-3.3l-6.3,1.6c0,0,0,8.8-7.2-2.4s-5.1-5.6-5.1-5.6l-1.1-5.6v-4.9
				l2.6-7.8l1.4-4.8l-3.3-7.2l-8-4.8l-4.8,4l-1.6,6.4l-4.8-0.8l-5.6,0.8c0,0,0,1.6-4.8-3.2c-4.8-4.8-4.8-4.8-4.8-4.8l-5.6-0.8
				l-4.8,4l-13.5-11.9l-9.5-7.2l-8.8-4l-7.2-5.6l-8,3.5l-5.6,1.1h-8.1l-7-1h-7.3l-7-5.3l-46.8,1.6"/>
			<path id="XMLID_285_" class="st2" d="M844.4,1658.8c0,0,9.5-5.6,12.7-5.6s15.3,0,15.3,0l6,2.6l1.3,4v4.9c0,0,0.3,1.4,2.7,3
				s5.7-0.2,5.7-0.2l4.9,0.5h6.5l3.8-3.1l0.8-4.4c0,0-2.4-5.7-1.6-9.6c0.8-4,5.6-8.7,5.6-8.7l-2.4-4.8l-2.4-4l-1.6-5.4l4-3h4.9
				l3.8,4.3l4,2.7h4.9l3.8,2.7l5.6-3l3.2-4.7l4-2.4c0,0,2.9-2.3,4.5-4.7s1.3-7.1,1.3-7.1v-3.8l-3.8-4.9l-2.2-5.6l-2.3-4.8
				c0,0-3.1-4-6.3-4s-6.3-3.2-6.3-3.2l4-2.4l6.4,1.6l4-3.2l4-4l3.3-4.8l3-3.1l4.8-4.7h7.8h9l6.2-3.2l6.4-4l2.4-4.8l-4-2.9l-7.2-2.1
				H971l-4.9-1h-7.3l-6.2,2.9l-6.4,0.7l-4.8-2.4l0.8-5.6l3.2-4l-0.8-4.8l-1.6-5.6l3.2-3.2h6.2l6.5-3.1l4-6.4l4.8-4.8v-5.7l0.9-7.1
				l-2.4-6.5l-0.8-6.5h4.1l3-2.2l3.2-2.3l-1.6-4l-8-4.8l-4-2.5l1.6-7.3h6.2h4.8h8l5.7-3.2l3.2-6.3l4.8-4.7l2.4-4.7l-4.8-4l-4-5.6
				l-1.6-6.4l0.1-10.9"/>
			<path id="XMLID_371_" class="st2" d="M1312.5,1090.9l10.1,7.5l9.4,1.9h8.6c0,0-0.7-2.7,7.3,0.6c8,3.3,3.2-0.4,8,3.6
				s4.8,4.1,4.8,4.1l5.6,4.8l4.8,6.4l3.5,8l1.1,9.6v7.8l-3.4,5.7l-3.6,4.8v5.5l0,7.3l-4.3,6.4l-4.6,8l-3.8,8.8l-5.4,2.4v5.5l-5,7.3
				c0,0-4,1.6-8.8,2.4s-13.5,0-13.5,0l-5.6,3.2l-5.4,9.5l-1.8,6.4l3.2,7.2l1.6,7.2l-3,8.8l-4.9,5.6l-4.8,8l-3.2,8.8l4,7.2l4,7.2
				l-0.8,9.5l-1.6,8.8l6.4,4.8c0,0,2.4,4,4.8,9.5s2.4,5.6,2.4,5.6l6.4-4.8l4.8-2.4l4.8,3.2l5.6,3.4l6.4,1h7.1l6.1-4.1l4.2-5v-7
				l-2.5-4.1l4.9-7.2l-3.9-4.8l-7.5-1.6l-6-1.6v-7.8l-1.9-8.9l-3-6.4l-4.7-5.6l2.4-7.2l-2.4-7.2l-3.2-6.4l-4-7.2l3.2-10.3l7.2-4
				l7.2-0.7l5.6-4.1h5.7l-1.8,9.8l-4,2.7l1.6,5.3l9.5,4.7l4.8,4.7l6.4,5.5l6.4,2.4l6.4-3.2l2.4-7.2l4.8-4.8l6.4,0.8l1.6,4.8l-2.4,8
				l2.4,4.8l11.9-3.2h9.4l7.3,0.7l4.8-3.1l3.2-7.1l6.1-3.2l8.2-5.6l7.1-5.6l7-2.4l4.5,4.8v6.5l5,4.6v8.1l-2.7,6.2l4.7,5.6l7.9,0.8
				l4.8-4l4.8-5l4.8,0.6h6.5l7-3.7l5.6-0.7l-2.4,12l-4,4.8l4.8,2.4l8-0.8l7.2-1.6l4.6,0.8l4.6-8v-5.7l4.8-6.3l5.7,0.9l4.1,4.9h5.7
				c0,0-0.2-1.6,3.8-5.6c4-4,4-4,4-4l4,3.1c0,0,0,1.6,3.2,6.3s3.2,4.7,3.2,4.7l8,1.5h6.3l3.3,3.4v7l4.4,3.3l6.5,2.4l7.2,5.6l7.2,2.4
				l2.4,8l5.6,2.4l7.2-1.6l7.1-3.2l6.5,0.8l8.8-1.6l5.6,4.8l-3.6,11.9l-2.8,3.2v7.8l4.4,4.9l-1.4,5.6l-3.1,4.8c0,0-1.5,3.2,0,5.6
				s11.2,16.7,25.5,21.5c14.3,4.8,24.7-9.5,24.7-9.5l4.8-9.5c0,0,1.6-5.6,2.4-8s1.6-8,1.6-8l0.8-11.9l-0.8-6.4l4.8-4l2.4-6.4
				l-2.4-7.2l-2.4-9.5l-5.9-10.3l-4.3-8.8v-12.8l5.2-11.8l5.7-6.4l9.7-4.8l9.5-2.4l7.2-3.2l6.4-11.1l4.8-5.6l8.8-4l4-5.6l8,4
				l6.4-3.6l8-1.2h8.1l4.6-3.5l-1.6-7.8l-8.8-4.7l-3.2-3.9h-8l-4.7-2.3l-8-8l-8-5.6v-7.8l7.1-3.3l3.6-5.6l-2.2-4.8l-7.8-1.6
				l-5.5-2.4l-6.3-4.8l4-5.6l6.4-1.6l4-6.4l10.3,0.8l7.2,1.6l3.2-4.8l-5.6-5.6l-4.8-4.8l1.6-7.5l-6.4-1.2h-11l0.2-7.2v-6.5l-7.8-3.9
				l1-8.8l-6.3-5.6l-7.1-11.9l-2.4-13.5"/>
			<polyline id="XMLID_342_" class="st2" points="2083.7,1094.8 2093.6,1102.2 2097.8,1110.2 2099.5,1119 2096.3,1124.6 
				2090,1128.6 2084.4,1131.8 2082.8,1137.4 2081.3,1142.8 2077.3,1148.3 2067.7,1148.3 2066.1,1155.5 2070.1,1163.1 2076.5,1166.2 
				2080.5,1173.2 2085.2,1178.8 2088.4,1185.9 2091.6,1193.6 2088.4,1197.8 2077.3,1194.7 2071.7,1196.2 2067.7,1202.6 
				2068.5,1210.7 2066.1,1215.3 2059.7,1215.3 2051.8,1213.1 2046.3,1219.4 2043.9,1223.3 2035.3,1223.3 2031.1,1228.5 
				2029.6,1233.1 2022,1234.5 2017.6,1243.2 2017.6,1251.3 2014.7,1262.3 2013.4,1270.2 2011.9,1275.8 2004,1277.4 1997.7,1282.1 
				1991.4,1280.6 1983.4,1279 1975.5,1280.6 1970.7,1288.5 1967.5,1298.1 1963.5,1301.2 1956.4,1298.1 1955.6,1289.3 1949.2,1285.3 
				1939.7,1284.5 1938.1,1279 1936.5,1272.6 1926.2,1273.4 1915,1268.6 1907.9,1264.6 1900.7,1274.2 1902.3,1281.4 1901.5,1284.5 
				1884.8,1292.5 1872.9,1296.5 1864.1,1299.2 1859.3,1304.3 1852.9,1304.3 1845.8,1308 1838.7,1303.4 1834.7,1297.3 1829,1297.3 
				1823.5,1302.9 1819.6,1308.3 1812.6,1308.3 1807.6,1314.3 1800.4,1314.3 1794.6,1306 1794.6,1301.1 1790.8,1294.9 1779.3,1298.1 
				1775.2,1300.4 1771.9,1289.3 1769.5,1286.9 1761.5,1292.3 1754.3,1295.3 1728.1,1295.3 			"/>
			<path id="XMLID_487_" class="st2" d="M1718.6,1337.2l15.1,9.5l7.9,10.5l6.4,4.6l4.8,10.3l3.2,8.7l6.4,1.6l4-2.4l2.4-5.6l4.8,2.4
				l1.6,5.6l-4,8l-1.6,6.4l7.2,2.4l4,5.6l-2.4,11.1l2.4,8.8l6.4,4l8,4.8l8,1.6l-2.4,13.5l-5.6,6.4l-8.8,7.2l-11.1,8.8l2.4,7.2
				l7.2,1.6l4,2.4l5.6,4.8l6.4,1.6l6.4-1.6l5.6-4l7.2-4l10.3,0.8l11.9-2.4l10.3-0.8l11.1-1.6l-0.8,17.5l-7.2,11.1l6.4,7.2l8.8,2.4
				c0,0,0.8,1.6,6.4-4s5.6-5.6,5.6-5.6l6.4-4l7.2,4l6.4,3.2l7.2-1.6l7.2-2.4l7.2,8.8l5.6,0.8l5.4-4l3.8-7v-9l-0.8-6.3l-2.3-8.8
				l-0.7-8l6.4-4l8,4.8l6.4,5.6l8.8,1.6l4.8,4.8l8.8,2.4l7.2,0.8l14,7.2l7.6-5.6v-5.7l-2.9-7.1l-0.6-7.2l-3.9-4l-6.3-2.4l-7.1-4.8
				l-5.6-5.6l-7.9-6.4l0.8-5.6l1.6-8.8l-1.6-4l-8-1h-7.2l-7.1-3.5l-5.6-7.3c0,0-3.2-3.2-6.4-3.2c-3.2,0-8-1.6-8-1.6l-6.4-2.4
				l-1.6-8.8l1.6-7.2l0.8-7.2l4.8-4l4.8-4.8l6.4-1.6l5.6,4.4l3.2,6h7.9l5.6-2.9l2.4-10.5l7.2-6.5l7.2-0.8l8-1.6l7.2-3.8l4-8.9
				l3.2-7.2l7.2,1.6l7.2,2.4l6.4,4l5.6-1.6l1.6-4.8l1.6-7.2l0.8-7.2h6.3l5.6-0.9l7.2-4.7l5.6-7.1c0,0,7.2-7.9,11.9-11.9
				c4.8-4,10.3-15.1,10.3-15.1l-4-10.3l4.8-4.8l-0.8-7.2l-2.4-8.7l3.2-8l-2.4-11.1l-6.4-9.5l-0.8-10.3l-4.8-5.2"/>
			<polyline id="XMLID_499_" class="st2" points="1999.5,1492.2 2002.6,1501.1 2012.1,1502.5 2018.4,1506.5 2020,1513 
				2027.2,1517.6 2035.9,1516 2042.3,1513 2047.1,1522.3 2051,1529.3 2059.2,1529.3 2062.2,1550.8 			"/>
			<path id="XMLID_491_" class="st2" d="M1778,1478.6l-1.9,10l-9.7,3.9l-7.2,1.4l-10.4,3.9l-5.6,5.5l-5.3,4.8l-1.1,7.2l1.1,4.8
				l2.9,4.8l3.2,4l-0.8,5.6l-7.9,3.2l-6.4,2.4l-3.2,6.4l-0.8,5.6l-4.5,3.2l-2.8,7.2v5.7l8.5,4.1l-5.9,4.3h-3l-2.6,5.3l-4,5.4l-4,5.5
				l-5.6,4.7l-4.8-3.2l-4-2.4l-7.2-1.5l-7.2,3.2h-9.6l-3.9,4l-0.8,4.7l-5.6,4.7l-2.4,4.7v7.9l-3.9,6h-6.2h-4.8l1.4,10.5l-1.4,8.5
				l-2.6,6.2l2.4,6.3l5.6,4.7l-0.8,7.9c0,0-3.2,4-2.4,11.9s0.8,8,0.8,8l8.8,3.4l7.2,3.4h8.1l3.8,2.8l1.6,7.2l-3.2,8h-3.8l-4.9-5.7
				l-6.4-2.3h-5.7l-6.3,1l-4.8-3.8l-4.8-5.5l-8-2.3l-9.5-3.2l-8.5,0.8l-3.8,4v8.9l3.7,7.2l5.5,3.8l2.4,5.6l-0.8,8l1.6,4.8l4.8,4.8
				l5.6,5.6l0.8,9.5l0.8,12.7l2.4,7.2l2.4,5.6l0.8,8l-4,8.8l-4,6.4l-7.2,6.4l-8,3.2l-0.8,4.8l1.6,8l-7.8,6.4l-12.9,10.3l-11.1,3.2
				l-2.4,3.2l1.6,6.4l-1.6,8l-7.2,8l-4,11.1l4,9.5c0,0,10.3-1.6,19.1-6.4c8.8-4.8,15.1-8,15.1-8l8.8-4l7.2-3.2l6.4-0.8l8.8,0.8
				l7.2-1.6l2.4-6.4v-5.4v-4.2v-7l-2.8-6.5l3.3-8l4.9-4l4.8-0.8l4,8l4,7.2l1.6,5.6l5.6,3.2l8-4.8l4.8-7.2l4.8-1.6h4.7l7.3-0.9
				l4.1-4.7v-7.8l-1.8-5l3.2-7.2l4.8-4.8l8-3.2l7.2-2.4l5.6-5.6l2.4-5.6l-1.6-7.2l8-5.6l5.6-4l8-4c0,0,4,7.2,5.6,13.5
				c1.6,6.4,8,5.6,8,5.6s3.2,0,4.8,3.2s8,5.6,8,5.6l11.1,4l9.5,0.8l7.2-4.8l3.2-5.6l2.4-6.4l4.8-4l5.6-3.2l6.4-2.4l6.4-6.4l22.3,1.6
				"/>
			<path id="XMLID_501_" class="st2" d="M1672.7,1347.7l-9.7,8.1l-5,4.5l-4.6,2.4c0,0-3-1.3-5.2-1.3h-13.3l-5.3-1.1l-6.9-0.4
				l-6.4,0.6l-2.7-0.5l-3.2-2.9l-3.2-0.8l-3.2,1.7l-3.7,2.3h-4.2l-2.1-1.9l-2.1-2.1l-4.8-3.2l-4.3-0.5l-3.3,2.3v3l1.8,4.9l1.8,4.1
				l0.7,4.2l-2.1,4.8l-2.6,3.2l-3.2,3.2l-1.6,3.2l1.1,3.2l3.7,1.6h4.2l2.1-1.2l3.2-1.8l4.2-0.4l3.7,1.7l5.3,1.1l3.2,0.6l1.1,3.2
				l1.6,3.7l2.1,3.2h5.3h4.8l4,2.5l1.9,2.2l0.5,3.2l-3.2,3.7l-2.4,2.1l0.8,3.7v4.2l-3.1,2.3h-5.3l-2.1,0.3l-4.6,1.4l-1.9,2.9v6.9
				l-1.7,5.3l-2.3,2.7l-4.1-1.1l-2.6,1.1l-2.1,3.7l-2.5,1.6l0.2,6.4v4.8l-1.1,2.1l-3.6,1.1l-1.5,3.7l-0.5,3.7l-2.6,1.6l-5.8,2.7
				l-2.6,2.7l-6,4.2l-3.5-3.4l-3.7-3.5l-4.8,2.6l-3.7,2.6h-5.3l-3.7,3.6l-1.6,7.8l-6.4,7.9l-2.1,6.3l-2.1,5.3l-7.4,1.9l-5.3,7.1
				l1.6,8l-0.5,8l-2.7,5.3l-4.8,1.6l-3.2,3.2l1.6,8.5l-0.5,11.7l-2.1,9l-2.7,5.3l-4.8,6.4l-7.4,5.8l-5.2,2.7l-0.9,3.7v8l-1.1,6.4
				l1.5,3.7l4.2-1.1l3.1,3.7l1,6.4l0.5,3.7l-0.5,5.3l-3.7,8l-0.5,4.2l3,3.2l4.6,1.1v5.8l-2.3,14.3l-9.5,2.7l-4.8,2.1l1.1,5.3
				c0,0-6.4,6.9,0.5,6.4l4.8,0l3.7,2.1l1.1,6.9l-0.5,5.3l-6.9,2.1l-1.6,3.7l3.2,1.6l1.1,5.3l4.2,3.2l3.7,1.6l2.7,6.4l2.7,4.8
				l5.3,3.7l5.3,1.6l4.2,2.7l1.6,4.8l-0.5,6.4l-1.6,6.9l-2.7,3.7l-6.4,1.1l-4.2-2.7l-3.7-4.2l-2.1-3.2l-5.8,4.2l-5.8,3.2l-3.7,4.8
				l-2.7,5.3l-2.7,5.3l-0.8,4.8l-2.9,5.8v3.7l1.9,4.2l1.9,2.1l0.4,3.7l-2.2,4.2l-2.1,3.7l0.5,5.3l2.6,5.8l4.2,5.2l6.4,0.9h5.3
				l3.7,1.6l5.8,5.4l4.2,5.9l1.6,5.3l2.1,6.9l1.6,7.8l3.2,2h5.8h7.4l3.7,1.1l-1.1,9.9l2.4,4.2l2.4,2.6v9l1.4,5.3l3.2,3.2l8-4.2
				l5.3-2.1l5.8,0.5c0,0,9.1,4.4,13.4,3.5"/>
			<path id="XMLID_509_" class="st2" d="M904.7,2070.6l7.7-9.5l6-3.4l7.5,3.6l4.8,5.8l1.6,7.4l3.7,2.1l5.3-2.7l2.7-5.8l2.1-3.7
				l6.9,0.5l4.2,2.1l4.8-3.7l2.1-5.8l1.6-4.2l1.6-5.8l-1.1-5.8l2.7-3.7l3.2-2.1l3.7-6.4l-1.1-6.4l-3.7-5.3l-4.8-1.6l-2.1-3.2
				l-1.1-6.9l-3.2-5.3l-3.2-4.2c0,0,3.7-5.3,8.5-3.2s6.9-4.2,8-5.8s7.4-5.3,7.4-5.3l4.8,6.9c0,0,6.4,2.1,8,1.1c1.6-1.1,4.2-8,4.2-8
				l3.7-5.8l6.4-1.1l5.8-2.1l1.6-6.9l2.1-5.3l4.8-1.6h4.8l4.2,4.6l2.7,5.1l8.5,0.4l4.2-3.2l1.1-6.5l9-0.4h20.7l2.1-8.1l-2.1-7.1
				l2.1-5.9l-2.1-6.9l-1.1-8.5l5.8-5.3l6.9,3.2l11.7,5.8l11.1-1.1h12.7l8.5-0.1l6.4-1.3l1.1-6.7l-2.1-4.9l2.1-7h6.9l3.7-6.3l5.3-4.6
				l7-0.4l4.6,0.6l4.8-5.8l2.1-6.9l6.9-2.6l5.8-2.6l2.7-6.4l-1.6-12.2l9-1.6l5.3,1.6l5.3-3.2l1.6-7.4v-5.3c0,0-6.8-5.3,6.5-4.2
				l8.9-3.2l1.6,6.4l4.2,2.7l6.4,1.6l6.9-0.9l2.1-20h11.7l3.7-9.8l3.7-5.3l4.8-5.3l1.6-5.3l-4.2-6.4l-4.2-3.7l-1.6-5.8l4.2-5.3
				l2.7-2.7l1.1-8l1.1-6.4l4.2-1.1h5.3l3.2,4.1l2.7,4.3l4.1-1.3l2.5-3.4v-8v-5.8h10.9l2.1-7.5c0,0,0-11.1,0-12.7s1.2-8,1.2-8
				l2.1-5.3l-3.7-9l7.9-2.1l3.7,5.3l15.4,3.7l6.4,0.5l3.7,3.2l4.2,4.8l1.1,5.8l5.8,6.4l4.8,4.5l6.9,3.4h5.8l11.1,1.7l4.2-10.9
				l8.5,4.6l5.3,3.6h6.4l6.4-3.6l6.4-7l13.8,2.6l6.9,9.5l3.2,5.3l1.6,3.7v5.8l-0.8,6.4l-2.1,5.3l-3.6,5.8l-1,2.7l3.9,4.2l3.6,1.1v9
				l-2.6,11.1l7.1,6.4l6.5,3.2l15.4-0.5"/>
			<path id="XMLID_519_" class="st2" d="M1595.1,1882.8l4.6,8.1l-3,8.6l-5.8,4.2l-5.8,3.7l-3.2,5.3l-1.6,9.5l-2.6,8l-4.2,3.9
				l-5.8,3.3h-7.4l-5.8,2.4l-3.7,2.1l-2.7,5.3l-5.3,2.6l-9.5,1.6l-5.8,3.7l-4.2,5.3l-6.4,2.7l-10.6,1.1l-4.8-5.8l-3.7-1.1l-3.2,3.6
				l-3.7,4.6h-6.4l-3.7,3.7l2.1,5.4l3.2,2.7l5.3,1.6l4.2-1.6l3.2,1.6l-0.5,8l-3.2,4.2l-6.4-2.1l-6.4-2.1l-4.8-2.7l-3.7-5.8l-2.7-5.6
				l-3.7-3.5h-4.8l-7.4,2.8l-4.8,3.9l-1.6,5.1l3.2,4.2l2.7,4.2l-1.1,6.9l-4.8,2.1l-4.6-1.1l-4.4-4.2l-5.3-0.5l-19.6,8.5l-14.8,3.7
				l-10.6,4.2l-4.8,4.8v10.6v9.5l-1.6,5.3h-7.4l-8.5-0.9l-6.9,2.1l-4.8,4.2l-3.7,4.2c0,0-2.7,7.4-11.1,7.9s-19.6-1.1-19.6-1.1
				s-15.9-3.2-19.6,2.1c-3.7,5.3-7.4,9.5-7.4,9.5l-5.8,5.3l-10.6,1.1c0,0-18-1.6-27-1.1s-10.1-4.8-13.3-9.5s-2.9-12.2-2.9-12.2
				s1.3-6.9,1.3-9c0-2.1,0-10.1,0-10.1l5.2-6.4l1.1-4.2l-4.2-1.6l-7.9,1.1l-6.4-2.1l5.3-9.5l4.8-3.2l1.6-3.2l-1.1-4.8l-2.1-4.2
				l-2.7-6.4l1.1-36.6l-8.5-5.3l6.9-11.7l7.4-5.3l6.4-4.2l5.8-2.7l2.1-5.3l-5.3-3.7l-6.9-2.7l-5.8,0.5l0.5-8l3.2-5.3l3.7-2.7
				l2.1-5.8l2.6-5.9l3.1-3.6v-3.7l-5-2.7v-8.5l1.7-20"/>
			<path id="XMLID_520_" class="st2" d="M936.4,2141.1l10.7-3.2l9.3-7.4c0,0,1.3-2.1,1.3-4.8s0-8,0-8v-4.8l-4.3-4.8l3.8-4.8l1.8-2.1
				l-3.2-5.8l-2.1-5.3l1-4.8l4.2-6.4l-1.6-12.2"/>
			<path id="XMLID_521_" class="st2" d="M1233.1,2057.3h-13.9l-14.8-1.7l-5.3,1.7l-1.4,4.5l-3,4v4.2l3.7,4.8l-2,5.8l-4.7,3.7
				l-2.6,4.8l-2.6,5.8l4.8,6.4l4.8,5.8l5,5.3l2.8,6.9v9l-2.7,8l-5.5,3.2l-4.9-3.7l-6.4-2.1l-8-3.2l-6.4,2.7l-2.7,4.8l2.6,4.8
				l3.2,3.7l1.1,5.8l-1.6,4.2l-5.3,5.8l-1.1,6.9l1.1,6.4l4.2,3.7l5.3,3.2l4.2,2.1l-1.1,6.4l1.1,7.4l3.2,6.4l5.3,1.6l4.8-1.6l2.7-4.7
				l5.3-4.7h6.4l4.2,4.6l4.8,1.1l5.3-2.6l5.3,0.5l4.2,4.2l-2.1,6.9l-8.5,3.2l-3.7,5.3l-1.1,4.7l-2.7,1h-6.9h-5.3h-4.2l-6.4-3.3
				l-4.8-4.7h-4.2l0.5,5.8l3.2,6.7l0.5,5.8l-3.2,6.3v6.4l4.3,6.1h6.4l4.2-6.3l4.2-7.7h4.8l5.3,1.4l5.2-0.2l2.6,4.6v5.8l7,2.4h6.4
				l7.4-2.1l6.4-3.6l4.8-5l3.2-5.8l5.8-2.6h4.8l3.2,5.7l4.2,3.3h8l2.7,1.3l-2.1,6.1l-1.6,5.2c0,0,0,1.5,3.7,3.6s7.4,7.9,7.4,7.9
				l10.1-1.1l4.8,2.6l-1.6,10.6l-1.1,8l9,5.8l6.9,3.2l1.6,9l-5.3,10.1l-4.8,4.2l-8.5,4.2l-5.8,5.3l-4.2,6.4l1.6,8l6.9,6.4l8.5,3.2
				l5.8-4.8l1.1-6.4l4.8-4.2l3.7-5.8l1.6-6.9l3.7-7.4l3.7-4.2l6.9-4.2l6.4,1.1l4.2,3.2l7.4,1.6l7.4,0.5l6.4,1.1l5.3-5.3l3.2-5.3
				l6.9-1.6l5.3-1.6l3.2-4.2l2.7-6.9l8-0.5l6.4,4.2l8.5,2.1l6.4-2.1l8.5-3.2l6.4-4.8l6.4-4.2l4.8-9.5l1.6-10.1l4.8-3.2l7.4,0.5
				l12.3,2.5"/>
			<path id="XMLID_522_" class="st2" d="M998.6,2337.4l8.8-1.9c0,0,6.4-1.7,8,0.7s9.6,6.3,9.6,6.3l4,4.7l6.8,1.6l2.9,4.4v5.3
				l1.2,3.8l4.1,3.2l2.5,6.4l5.8,4l3.4,4v6.3l3.8,4.1l6.1,4.1h5.7h5.3l4.1,2.2l1.6,6.8l2.4,6.2c0,0,11.1-0.9,14.3-1.7
				s5.6,1.5,7.2,3.9c1.6,2.4,4.8,4.7,4.8,4.7l7.2,6.4l9.6,2.4c0,0,4,2.4,4,4.8c0,2.4,0,8.7,0,8.7l-11.6,2.4l-5.4,5.6v4.7l5.8,2.9
				h6.5l4.5,1.6l4.1,2.1l1.6,5.4l-1.6,6.3c0,0,3.2,6.3,8.8,6.3s8.8,0.8,10.3,3.2s5.6,7.9,5.6,7.9l-2.4,7.2l-4.8,0.8l0.8,5.6l6.4,2.4
				l6,2.4l4.4,4.8v5.8l-0.9,5.4l-3.6,4l-4.4,4c0,0,2.4,20.7,4.4,26.2c2,5.6,5.2,8,9.9,8c4.8,0,10.3-6.4,10.3-6.4l4.8-2.4l7.8-0.8
				l4.6,6.4v8.2l-1.5,6.1l-2.3,4l1.6,5.6l-0.6,5.6l-2.2,8v6.3l-0.9,8l-1.7,4.8l3.9,4l7.1,1.6l4.4,3.2l2.1,7.2v9l-3.6,6.9l-4.2,8
				l-5.7,5.6l-4,5.6l-4.8,5.6l4,7.2l4,4.8l1.6,5.6l-4,8l-0.8,4l4.8,4.8c0,0,1.6,4.8,0,8s-4.8,8.8-4.8,8.8l-10.3,23.1"/>
			<path id="XMLID_506_" class="st2" d="M1293.5,2338.4l-8.4-3.4l-7.2-6l-5.6,7.2l-9.6-8l-9.5,4c0,0,0,8.8-0.8,10.3
				c-0.8,1.6-4,3.2-4,3.2l-8.8-2.4l-4.8,4.8l-1.4,8l4.1,7.2v7.1l-6.6,6.4l-4,4l3.2,5.6l7.9,0.8l3.2,2.4l7.2,3.2l-0.8,8l-4,4.8l-8,4
				l-6.4,2.4l-4.8,4l-3.2,9.5l-5.6,0.8l-4.8-3.2l-5.6-1.6l-7.2,4l-6.4,4.8l-7.2-7.2l-4.8-2.4l-6.4,4l-2.4,8l-4,7.2
				c0,0-4.8-0.8-7.2-0.8c-2.4,0-8.8-0.8-8.8-0.8l-6.4,0.8c0,0-2.4-7.2-11.9-5.6"/>
			<path id="XMLID_523_" class="st1" d="M2072.4,1042.3c0,0,5.8-3.7,7.4,2.1c1.6,5.8,11.1,11.1,13.3,11.1s9.5-4.2,11.7-1.6
				c2.1,2.7,7.4,3.7,9.5,0c2.1-3.7,5.3-9,9.5-8.5c4.2,0.5,15.4,0,15.4,0"/>
			<path id="XMLID_527_" class="st2" d="M963.6,1516.2l7.8,6.9l5.9-1.7l4.3-5.6l5.8-4.1l6.4-2.1l5.8,2.6l1.6,6.4
				c0,0,2.1,1.6,2.7,3.2c0.5,1.6,0,8.5,0,8.5l-4.2,4.2l-2.1,2.1l5.3,8.5l8,3.2l12.7-1.1l9,1.1l6.9,4.8l15.4,15.9l12.2,1l8.5-2.7
				h10.1l9.5,3h15.9l10.1-0.8l4.2,3.7l5.8,3.2l2.1,8.5l-2.7,6.9l0.5,5.3l7.4,3.2h5.8l7.4-4.4l4.6-7.1l16.2-1.8v-11.1l6.2-6.4l3-3.7
				l0.9-8l15.9-5.3l8.5-9.3l5.8-3.4l4.8,3.4l13.3-5l14.7,3.2l3.1,6.9v7.4c0,0,5.6,1.1-2.4,2.7c-8,1.6-8,1.6-8,1.6l1.6,7.4l4.8,5.8
				l11.7,5.8l22.8-5.8l8.5-3.2l6.9-7.4l8.5-5.3l8.5-1.7l7.4,1.7l3.2,6.4l5.8,2.7l8,3.2l9-0.5l9-2.7l5.3-3.7l2.1-7l8.5-1.5l6.4-1.6
				l3.2-3.7l4.8-5.6l11.7,4.5l11.7,2.7l2.7,8l4.2,5.3l9-2.7l5.8-2.7l8,2.1l5.8,2.7l8.5-3.2l9-7.4l14.3,5.3l5.3,11.7l-1.6,8l12.7,0.5
				l10.7,3.9"/>
			<polyline id="XMLID_590_" class="st2" points="2222.9,1076 2226,1088 2227.6,1096 2225.2,1107.1 2220.5,1116.7 2214.6,1125.1 
				2214.6,1130.8 			"/>
			<path id="XMLID_700_" class="st2" d="M2222.9,1170.8l12.7-8.8l12.7-12.7l11.1-7.9l11.9-3.1h7.9l4.8,3.2l4.8,2.8l9.5-2h6.3l10.4-1
				h6.6l4.6,5.9l4,1.8l5.6-3.1l3.2,7.2l7.2-0.8l8.8-8.7l5.6-5.7l4.8-7.2l5.6,3.3l4,2.4l4-8l6.4-7.2h10.3h8l9.6-4l4.8,4.1l-3.2,6.4
				l-3.2,4l1.3,5.6l-1.1,8v7.3l7.5,2.2c0,0,7.3-4.8,12.1-3.2s11.2,8.8,11.2,8.8l9.6,1.6l-0.8,8.9l3.1,5.5l9.4,1.6v8.6l-6.4,8.1
				l-7,6.4l-11.1,8.8l-7.9,3.6"/>
			<path id="XMLID_702_" class="st2" d="M2395.7,1047.4c0,0,10.2,4,21.3,0.1c11.1-4,30.2-13.5,30.2-13.5l15.1,2.4l6.3,6.4l11.9-1.5
				l11.9-4.8l13.5-2.4l9.5,1.6l8-4l4-7.2l2.4-7.2l4-6.4l10.3-8l8.8-8l4.8-6.4l1.6-7.2l-2.4-9.5c0,0,8-4,16.7-2.4s31.8-11.1,35-12.7
				c3.2-1.6,19.1-9.2,19.1-9.2l12.7-5.3h13.7l9.3-9.1l7.2-4.9c0,0,20.7-9.6,16.7-0.1c-4,9.5-9.5,21.4-9.5,21.4l2.2,9.5l4.6,5.6v7
				l8.8,1.7l4.9,2.4l-2.3,8l-6.3,3.3l-6.3,0.1h-6.4l-6.3,3.1l-8,1.1l-7.2,12.9l-7.2,6.4l-13.5,5.6l-8.8,8.8l-10.3,4l-3.2-0.8
				c0,0-5.6,15.9-9.5,17.5c-4,1.6-18.3,4.8-18.3,4.8l-3.2,7.2l-5.6,11.1l-7.2,4l-3.2-2.4l-17.5,31.8l2.4,13.5l-0.8,8.8l-6.4,4.8
				l-7.2-11.9l-30.2,38.2l0.8,12.7l8.8,1.6l1.6,7.2l-8.7,10.3l-3.9,10.3v6.8l-2.5,7.5l-8,6.4l-4.8,7.2l0.8,8.8c0,0,0.9-15.1,0.1,9.5
				s-0.6,11.9-0.6,11.9v12.9l0.5,20.1l10.3,4.4h7.9l10,1.7l9.1,2.9"/>
			<polyline id="XMLID_701_" class="st1" points="2637.2,1015.5 2639.6,1026 2642.8,1038.7 2646,1046.7 2650,1052.3 			"/>
			<polyline id="XMLID_704_" class="st2" points="2517.1,1177.2 2523.5,1184.3 2530.7,1187.5 2536.2,1181.1 2539.4,1173.2 
				2541,1166.8 2541.8,1156.5 2553.7,1154.9 2563.3,1153.3 2569.7,1154.9 2575.2,1157.3 2582.4,1154.9 2589.5,1150.1 2594.3,1142.9 
				2601.7,1137.4 2603.6,1150.1 2603.6,1155.8 2618.5,1161.2 			"/>
			<polyline id="XMLID_703_" class="st2" points="2421.4,1252.3 2423.3,1260.6 2429.7,1265.4 2428.1,1275 2427.3,1281.7 
				2435.2,1285.3 2443.1,1285.3 2447.2,1293.7 2455.1,1288.3 2458.3,1280.5 2462.3,1274.1 2464.1,1267 2469.4,1259.1 2475,1267.8 
				2489.5,1268.8 			"/>
			<polyline id="XMLID_705_" class="st1" points="2435.2,1286 2436,1301.2 2435.2,1313.2 2436,1324.3 2428.9,1339.4 			"/>
		</g>
	</g>
</g>
</svg>
